<svg data-v-fde0c5aa="" xmlns="http://www.w3.org/2000/svg" viewBox="0 0 300 300" class="iconLeft"><!----><defs data-v-fde0c5aa=""><!----></defs><rect data-v-fde0c5aa="" fill="#EDED1B" x="0" y="0" width="300px" height="300px" class="logo-background-square"></rect><defs data-v-fde0c5aa=""><!----></defs><g data-v-fde0c5aa="" id="29ced8a2-70fc-4ce4-bdcc-32a528d7020e" fill="#131619" transform="matrix(1.8277848988767518,0,0,1.8277848988767518,89.19350557953521,127.92035943257352)"><path d="M0.64 15.68L0.64 5.88L2.88 5.88L4.20 15.18L4.37 15.18L5.68 5.88L7.92 5.88L7.92 15.68L6.83 15.68L6.83 6.38L6.66 6.38L5.35 15.68L3.22 15.68L1.90 6.38L1.74 6.38L1.74 15.68L0.64 15.68ZM16.34 12.12L16.34 12.29L16.34 12.29Q16.34 13.16 16.05 13.82L16.05 13.82L16.05 13.82Q15.76 14.49 15.29 14.95L15.29 14.95L15.29 14.95Q14.81 15.40 14.18 15.64L14.18 15.64L14.18 15.64Q13.54 15.88 12.85 15.88L12.85 15.88L12.85 15.88Q12.15 15.88 11.52 15.64L11.52 15.64L11.52 15.64Q10.89 15.40 10.42 14.95L10.42 14.95L10.42 14.95Q9.94 14.49 9.65 13.82L9.65 13.82L9.65 13.82Q9.37 13.16 9.37 12.29L9.37 12.29L9.37 12.12L9.37 12.12Q9.37 11.27 9.65 10.61L9.65 10.61L9.65 10.61Q9.94 9.94 10.42 9.48L10.42 9.48L10.42 9.48Q10.91 9.02 11.54 8.78L11.54 8.78L11.54 8.78Q12.17 8.54 12.85 8.54L12.85 8.54L12.85 8.54Q13.54 8.54 14.17 8.78L14.17 8.78L14.17 8.78Q14.80 9.02 15.28 9.48L15.28 9.48L15.28 9.48Q15.76 9.94 16.05 10.61L16.05 10.61L16.05 10.61Q16.34 11.27 16.34 12.12L16.34 12.12ZM12.85 14.84L12.85 14.84L12.85 14.84Q13.36 14.84 13.78 14.66L13.78 14.66L13.78 14.66Q14.21 14.49 14.53 14.15L14.53 14.15L14.53 14.15Q14.85 13.82 15.04 13.35L15.04 13.35L15.04 13.35Q15.22 12.88 15.22 12.29L15.22 12.29L15.22 12.12L15.22 12.12Q15.22 11.56 15.04 11.09L15.04 11.09L15.04 11.09Q14.85 10.63 14.53 10.29L14.53 10.29L14.53 10.29Q14.21 9.95 13.78 9.77L13.78 9.77L13.78 9.77Q13.34 9.58 12.85 9.58L12.85 9.58L12.85 9.58Q12.36 9.58 11.93 9.77L11.93 9.77L11.93 9.77Q11.49 9.95 11.17 10.29L11.17 10.29L11.17 10.29Q10.85 10.63 10.67 11.09L10.67 11.09L10.67 11.09Q10.49 11.56 10.49 12.12L10.49 12.12L10.49 12.29L10.49 12.29Q10.49 12.88 10.67 13.35L10.67 13.35L10.67 13.35Q10.85 13.82 11.17 14.15L11.17 14.15L11.17 14.15Q11.49 14.49 11.92 14.66L11.92 14.66L11.92 14.66Q12.35 14.84 12.85 14.84ZM24.91 8.74L22.48 15.68L20.33 15.68L17.91 8.74L19.19 8.74L21.32 15.18L21.49 15.18L23.62 8.74L24.91 8.74ZM29.08 6.66L29.08 6.66L29.08 6.66Q29.08 6.26 29.37 5.97L29.37 5.97L29.37 5.97Q29.65 5.68 30.06 5.68L30.06 5.68L30.06 5.68Q30.46 5.68 30.75 5.97L30.75 5.97L30.75 5.97Q31.04 6.26 31.04 6.66L31.04 6.66L31.04 6.66Q31.04 7.07 30.75 7.36L30.75 7.36L30.75 7.36Q30.46 7.64 30.06 7.64L30.06 7.64L30.06 7.64Q29.65 7.64 29.37 7.36L29.37 7.36L29.37 7.36Q29.08 7.07 29.08 6.66ZM27.09 15.68L27.09 14.67L29.53 14.67L29.53 9.74L27.34 9.74L27.34 8.74L30.62 8.74L30.62 14.67L32.89 14.67L32.89 15.68L27.09 15.68ZM41.89 12.54L36.29 12.54L36.29 12.54Q36.33 13.58 36.93 14.21L36.93 14.21L36.93 14.21Q37.53 14.84 38.61 14.84L38.61 14.84L38.61 14.84Q39.10 14.84 39.47 14.73L39.47 14.73L39.47 14.73Q39.83 14.62 40.09 14.42L40.09 14.42L40.09 14.42Q40.35 14.22 40.51 13.96L40.51 13.96L40.51 13.96Q40.67 13.71 40.77 13.41L40.77 13.41L41.80 13.69L41.80 13.69Q41.51 14.66 40.72 15.27L40.72 15.27L40.72 15.27Q39.93 15.88 38.58 15.88L38.58 15.88L38.58 15.88Q37.84 15.88 37.22 15.62L37.22 15.62L37.22 15.62Q36.60 15.36 36.15 14.88L36.15 14.88L36.15 14.88Q35.70 14.41 35.45 13.75L35.45 13.75L35.45 13.75Q35.20 13.09 35.20 12.29L35.20 12.29L35.20 11.96L35.20 11.96Q35.20 11.23 35.45 10.60L35.45 10.60L35.45 10.60Q35.71 9.97 36.18 9.51L36.18 9.51L36.18 9.51Q36.64 9.06 37.26 8.80L37.26 8.80L37.26 8.80Q37.88 8.54 38.61 8.54L38.61 8.54L38.61 8.54Q39.47 8.54 40.09 8.86L40.09 8.86L40.09 8.86Q40.71 9.17 41.11 9.63L41.11 9.63L41.11 9.63Q41.51 10.09 41.70 10.64L41.70 10.64L41.70 10.64Q41.89 11.19 41.89 11.65L41.89 11.65L41.89 12.54ZM38.61 9.58L38.61 9.58L38.61 9.58Q38.15 9.58 37.75 9.72L37.75 9.72L37.75 9.72Q37.35 9.87 37.05 10.14L37.05 10.14L37.05 10.14Q36.75 10.40 36.56 10.76L36.56 10.76L36.56 10.76Q36.37 11.12 36.32 11.54L36.32 11.54L40.80 11.54L40.80 11.54Q40.77 11.09 40.58 10.72L40.58 10.72L40.58 10.72Q40.39 10.36 40.09 10.11L40.09 10.11L40.09 10.11Q39.79 9.86 39.40 9.72L39.40 9.72L39.40 9.72Q39.02 9.58 38.61 9.58ZM43.86 15.68L43.86 5.88L45.04 5.88L45.04 10.22L49.21 10.22L49.21 5.88L50.39 5.88L50.39 15.68L49.21 15.68L49.21 11.31L45.04 11.31L45.04 15.68L43.86 15.68ZM59.02 12.54L53.42 12.54L53.42 12.54Q53.47 13.58 54.07 14.21L54.07 14.21L54.07 14.21Q54.67 14.84 55.75 14.84L55.75 14.84L55.75 14.84Q56.24 14.84 56.60 14.73L56.60 14.73L56.60 14.73Q56.97 14.62 57.22 14.42L57.22 14.42L57.22 14.42Q57.48 14.22 57.64 13.96L57.64 13.96L57.64 13.96Q57.81 13.71 57.90 13.41L57.90 13.41L58.94 13.69L58.94 13.69Q58.65 14.66 57.85 15.27L57.85 15.27L57.85 15.27Q57.06 15.88 55.72 15.88L55.72 15.88L55.72 15.88Q54.98 15.88 54.35 15.62L54.35 15.62L54.35 15.62Q53.73 15.36 53.28 14.88L53.28 14.88L53.28 14.88Q52.84 14.41 52.58 13.75L52.58 13.75L52.58 13.75Q52.33 13.09 52.33 12.29L52.33 12.29L52.33 11.96L52.33 11.96Q52.33 11.23 52.59 10.60L52.59 10.60L52.59 10.60Q52.85 9.97 53.31 9.51L53.31 9.51L53.31 9.51Q53.77 9.06 54.40 8.80L54.40 8.80L54.40 8.80Q55.02 8.54 55.75 8.54L55.75 8.54L55.75 8.54Q56.60 8.54 57.22 8.86L57.22 8.86L57.22 8.86Q57.85 9.17 58.25 9.63L58.25 9.63L58.25 9.63Q58.65 10.09 58.83 10.64L58.83 10.64L58.83 10.64Q59.02 11.19 59.02 11.65L59.02 11.65L59.02 12.54ZM55.75 9.58L55.75 9.58L55.75 9.58Q55.29 9.58 54.89 9.72L54.89 9.72L54.89 9.72Q54.49 9.87 54.19 10.14L54.19 10.14L54.19 10.14Q53.89 10.40 53.70 10.76L53.70 10.76L53.70 10.76Q53.51 11.12 53.45 11.54L53.45 11.54L57.93 11.54L57.93 11.54Q57.90 11.09 57.71 10.72L57.71 10.72L57.71 10.72Q57.53 10.36 57.22 10.11L57.22 10.11L57.22 10.11Q56.92 9.86 56.54 9.72L56.54 9.72L56.54 9.72Q56.15 9.58 55.75 9.58ZM61.19 15.68L61.19 14.67L63.71 14.67L63.71 6.89L61.28 6.89L61.28 5.88L64.81 5.88L64.81 14.67L67.33 14.67L67.33 15.68L61.19 15.68ZM70.60 14.62L70.60 18.48L69.51 18.48L69.51 8.74L70.60 8.74L70.60 9.83L70.77 9.83L70.77 9.83Q71.13 9.20 71.78 8.87L71.78 8.87L71.78 8.87Q72.42 8.54 73.18 8.54L73.18 8.54L73.18 8.54Q73.82 8.54 74.40 8.78L74.40 8.78L74.40 8.78Q74.97 9.02 75.41 9.46L75.41 9.46L75.41 9.46Q75.85 9.91 76.11 10.57L76.11 10.57L76.11 10.57Q76.37 11.23 76.37 12.07L76.37 12.07L76.37 12.35L76.37 12.35Q76.37 13.20 76.12 13.86L76.12 13.86L76.12 13.86Q75.87 14.52 75.42 14.97L75.42 14.97L75.42 14.97Q74.98 15.41 74.40 15.64L74.40 15.64L74.40 15.64Q73.81 15.88 73.15 15.88L73.15 15.88L73.15 15.88Q72.81 15.88 72.46 15.80L72.46 15.80L72.46 15.80Q72.11 15.72 71.80 15.56L71.80 15.56L71.80 15.56Q71.48 15.40 71.22 15.17L71.22 15.17L71.22 15.17Q70.95 14.94 70.77 14.62L70.77 14.62L70.60 14.62ZM72.93 14.84L72.93 14.84L72.93 14.84Q73.43 14.84 73.85 14.66L73.85 14.66L73.85 14.66Q74.27 14.49 74.58 14.17L74.58 14.17L74.58 14.17Q74.90 13.85 75.08 13.38L75.08 13.38L75.08 13.38Q75.25 12.92 75.25 12.35L75.25 12.35L75.25 12.07L75.25 12.07Q75.25 11.51 75.08 11.05L75.08 11.05L75.08 11.05Q74.90 10.60 74.58 10.27L74.58 10.27L74.58 10.27Q74.27 9.94 73.84 9.76L73.84 9.76L73.84 9.76Q73.42 9.58 72.93 9.58L72.93 9.58L72.93 9.58Q72.44 9.58 72.02 9.77L72.02 9.77L72.02 9.77Q71.60 9.95 71.28 10.29L71.28 10.29L71.28 10.29Q70.97 10.63 70.78 11.09L70.78 11.09L70.78 11.09Q70.60 11.56 70.60 12.12L70.60 12.12L70.60 12.29L70.60 12.29Q70.60 12.87 70.78 13.33L70.78 13.33L70.78 13.33Q70.97 13.80 71.28 14.14L71.28 14.14L71.28 14.14Q71.60 14.48 72.02 14.66L72.02 14.66L72.02 14.66Q72.44 14.84 72.93 14.84ZM84.73 12.54L79.13 12.54L79.13 12.54Q79.17 13.58 79.77 14.21L79.77 14.21L79.77 14.21Q80.37 14.84 81.45 14.84L81.45 14.84L81.45 14.84Q81.94 14.84 82.31 14.73L82.31 14.73L82.31 14.73Q82.67 14.62 82.93 14.42L82.93 14.42L82.93 14.42Q83.19 14.22 83.35 13.96L83.35 13.96L83.35 13.96Q83.51 13.71 83.61 13.41L83.61 13.41L84.64 13.69L84.64 13.69Q84.35 14.66 83.56 15.27L83.56 15.27L83.56 15.27Q82.77 15.88 81.42 15.88L81.42 15.88L81.42 15.88Q80.68 15.88 80.06 15.62L80.06 15.62L80.06 15.62Q79.44 15.36 78.99 14.88L78.99 14.88L78.99 14.88Q78.54 14.41 78.29 13.75L78.29 13.75L78.29 13.75Q78.04 13.09 78.04 12.29L78.04 12.29L78.04 11.96L78.04 11.96Q78.04 11.23 78.30 10.60L78.30 10.60L78.30 10.60Q78.55 9.97 79.02 9.51L79.02 9.51L79.02 9.51Q79.48 9.06 80.10 8.80L80.10 8.80L80.10 8.80Q80.72 8.54 81.45 8.54L81.45 8.54L81.45 8.54Q82.31 8.54 82.93 8.86L82.93 8.86L82.93 8.86Q83.55 9.17 83.95 9.63L83.95 9.63L83.95 9.63Q84.35 10.09 84.54 10.64L84.54 10.64L84.54 10.64Q84.73 11.19 84.73 11.65L84.73 11.65L84.73 12.54ZM81.45 9.58L81.45 9.58L81.45 9.58Q80.99 9.58 80.59 9.72L80.59 9.72L80.59 9.72Q80.19 9.87 79.89 10.14L79.89 10.14L79.89 10.14Q79.59 10.40 79.40 10.76L79.40 10.76L79.40 10.76Q79.21 11.12 79.16 11.54L79.16 11.54L83.64 11.54L83.64 11.54Q83.61 11.09 83.42 10.72L83.42 10.72L83.42 10.72Q83.23 10.36 82.93 10.11L82.93 10.11L82.93 10.11Q82.63 9.86 82.24 9.72L82.24 9.72L82.24 9.72Q81.86 9.58 81.45 9.58ZM86.51 9.74L86.51 8.74L89.03 8.74L89.03 9.66L89.19 9.66L89.19 9.66Q89.46 9.09 89.95 8.81L89.95 8.81L89.95 8.81Q90.44 8.54 91.07 8.54L91.07 8.54L91.07 8.54Q92.12 8.54 92.76 9.23L92.76 9.23L92.76 9.23Q93.41 9.91 93.45 11.23L93.45 11.23L92.30 11.40L92.30 11.40Q92.30 10.43 91.84 10.00L91.84 10.00L91.84 10.00Q91.38 9.58 90.71 9.58L90.71 9.58L90.71 9.58Q90.27 9.58 89.96 9.74L89.96 9.74L89.96 9.74Q89.64 9.91 89.43 10.21L89.43 10.21L89.43 10.21Q89.22 10.50 89.12 10.89L89.12 10.89L89.12 10.89Q89.03 11.28 89.03 11.73L89.03 11.73L89.03 14.67L90.79 14.67L90.79 15.68L86.34 15.68L86.34 14.67L87.93 14.67L87.93 9.74L86.51 9.74Z"></path></g><defs data-v-fde0c5aa=""><!----></defs><g data-v-fde0c5aa="" id="4a21d16f-b9f1-4051-b6f7-bab1ea1777fd" stroke="none" fill="#131619" transform="matrix(1.1676027499254418,0,0,1.1676027499254418,40,131.31835614038204)"><path d="M17.572 23.933l4.106 7.095L32 13.189h-8.981V7.582L11.51.972 0 7.582v13.222l11.51 6.611 6.062-3.482zm10.96-8.744l-6.855 11.846-6.855-11.846h13.71z"></path></g><!----></svg>